<mxfile host="app.diagrams.net" modified="2020-12-23T16:59:23.042Z" agent="5.0 (Windows NT 10.0; Win64; x64) AppleWebKit/537.36 (KHTML, like Gecko) Chrome/87.0.4280.101 Safari/537.36" etag="pVLRNgdu6Jvuf26bMmxk" version="14.1.2" type="github">
  <diagram id="C5RBs43oDa-KdzZeNtuy" name="Page-1">
    <mxGraphModel dx="2135" dy="1706" grid="1" gridSize="10" guides="1" tooltips="1" connect="1" arrows="1" fold="1" page="1" pageScale="1" pageWidth="827" pageHeight="1169" math="0" shadow="0">
      <root>
        <mxCell id="WIyWlLk6GJQsqaUBKTNV-0" />
        <mxCell id="WIyWlLk6GJQsqaUBKTNV-1" parent="WIyWlLk6GJQsqaUBKTNV-0" />
        <mxCell id="yJvv-XalZOZq7SXCXMbF-25" value="EmployeeViewer" style="swimlane;fontStyle=0;align=center;verticalAlign=top;childLayout=stackLayout;horizontal=1;startSize=26;horizontalStack=0;resizeParent=1;resizeLast=0;collapsible=1;marginBottom=0;rounded=0;shadow=0;strokeWidth=1;" parent="WIyWlLk6GJQsqaUBKTNV-1" vertex="1">
          <mxGeometry x="130" y="1169" width="250" height="370" as="geometry">
            <mxRectangle x="130" y="380" width="160" height="26" as="alternateBounds" />
          </mxGeometry>
        </mxCell>
        <mxCell id="yJvv-XalZOZq7SXCXMbF-26" value="-name: JLabel&#xa;-nameField: JTextField&#xa;-surnameField: JTextField&#xa;-surname: JLabel&#xa;-newAddress: JLAbel&#xa;-newNumber: JLabel&#xa;-addressTextField: JTextField&#xa;-phoneNumberTextField: JTextField&#xa;-SaveNewAddressButton: JButton&#xa;-IDNumber: JLabel&#xa;#MusterMann: EmployeeModel&#xa;" style="text;align=left;verticalAlign=top;spacingLeft=4;spacingRight=4;overflow=hidden;rotatable=0;points=[[0,0.5],[1,0.5]];portConstraint=eastwest;" parent="yJvv-XalZOZq7SXCXMbF-25" vertex="1">
          <mxGeometry y="26" width="250" height="164" as="geometry" />
        </mxCell>
        <mxCell id="yJvv-XalZOZq7SXCXMbF-27" value="" style="line;html=1;strokeWidth=1;align=left;verticalAlign=middle;spacingTop=-1;spacingLeft=3;spacingRight=3;rotatable=0;labelPosition=right;points=[];portConstraint=eastwest;" parent="yJvv-XalZOZq7SXCXMbF-25" vertex="1">
          <mxGeometry y="190" width="250" height="8" as="geometry" />
        </mxCell>
        <mxCell id="yJvv-XalZOZq7SXCXMbF-28" value="#EmployeeViewer()" style="text;align=left;verticalAlign=top;spacingLeft=4;spacingRight=4;overflow=hidden;rotatable=0;points=[[0,0.5],[1,0.5]];portConstraint=eastwest;" parent="yJvv-XalZOZq7SXCXMbF-25" vertex="1">
          <mxGeometry y="198" width="250" height="22" as="geometry" />
        </mxCell>
        <mxCell id="yJvv-XalZOZq7SXCXMbF-29" value="" style="line;html=1;strokeWidth=1;align=left;verticalAlign=middle;spacingTop=-1;spacingLeft=3;spacingRight=3;rotatable=0;labelPosition=right;points=[];portConstraint=eastwest;" parent="yJvv-XalZOZq7SXCXMbF-25" vertex="1">
          <mxGeometry y="220" width="250" height="8" as="geometry" />
        </mxCell>
        <mxCell id="yJvv-XalZOZq7SXCXMbF-30" value="+ getName(): String&#xa;+ getSurname(): String&#xa;+ getaddress(): String&#xa;+getphoneNumber(): String&#xa;+ setPhoneNumber(String): void&#xa;+ setAddress(String): void&#xa;# addListener(ActionListener, JButton): void&#xa;# displayErrorMsg(): void&#xa;+ update(): void" style="text;align=left;verticalAlign=top;spacingLeft=4;spacingRight=4;overflow=hidden;rotatable=0;points=[[0,0.5],[1,0.5]];portConstraint=eastwest;" parent="yJvv-XalZOZq7SXCXMbF-25" vertex="1">
          <mxGeometry y="228" width="250" height="142" as="geometry" />
        </mxCell>
        <mxCell id="k2MHYXyFLo4ic7kFRecb-33" value="makeNewEmployeeWindow" style="swimlane;fontStyle=0;align=center;verticalAlign=top;childLayout=stackLayout;horizontal=1;startSize=26;horizontalStack=0;resizeParent=1;resizeLast=0;collapsible=1;marginBottom=0;rounded=0;shadow=0;strokeWidth=1;" parent="WIyWlLk6GJQsqaUBKTNV-1" vertex="1">
          <mxGeometry x="364" y="990" width="200" height="60" as="geometry">
            <mxRectangle x="130" y="380" width="160" height="26" as="alternateBounds" />
          </mxGeometry>
        </mxCell>
        <mxCell id="k2MHYXyFLo4ic7kFRecb-36" value="+perform(JPanel): void" style="text;align=left;verticalAlign=top;spacingLeft=4;spacingRight=4;overflow=hidden;rotatable=0;points=[[0,0.5],[1,0.5]];portConstraint=eastwest;" parent="k2MHYXyFLo4ic7kFRecb-33" vertex="1">
          <mxGeometry y="26" width="200" height="22" as="geometry" />
        </mxCell>
        <mxCell id="FkI7Pd5H__eMOUBPpmtV-3" value="DataForAction" style="swimlane;fontStyle=0;align=center;verticalAlign=top;childLayout=stackLayout;horizontal=1;startSize=26;horizontalStack=0;resizeParent=1;resizeLast=0;collapsible=1;marginBottom=0;rounded=0;shadow=0;strokeWidth=1;" vertex="1" parent="WIyWlLk6GJQsqaUBKTNV-1">
          <mxGeometry x="632" y="760" width="195" height="100" as="geometry">
            <mxRectangle x="130" y="380" width="160" height="26" as="alternateBounds" />
          </mxGeometry>
        </mxCell>
        <mxCell id="FkI7Pd5H__eMOUBPpmtV-4" value="#view: JPanel&#xa;#components: Component[]" style="text;align=left;verticalAlign=top;spacingLeft=4;spacingRight=4;overflow=hidden;rotatable=0;points=[[0,0.5],[1,0.5]];portConstraint=eastwest;" vertex="1" parent="FkI7Pd5H__eMOUBPpmtV-3">
          <mxGeometry y="26" width="195" height="34" as="geometry" />
        </mxCell>
        <mxCell id="FkI7Pd5H__eMOUBPpmtV-5" value="" style="line;html=1;strokeWidth=1;align=left;verticalAlign=middle;spacingTop=-1;spacingLeft=3;spacingRight=3;rotatable=0;labelPosition=right;points=[];portConstraint=eastwest;" vertex="1" parent="FkI7Pd5H__eMOUBPpmtV-3">
          <mxGeometry y="60" width="195" height="8" as="geometry" />
        </mxCell>
        <mxCell id="FkI7Pd5H__eMOUBPpmtV-6" value="+ perform(JPanel): void" style="text;align=left;verticalAlign=top;spacingLeft=4;spacingRight=4;overflow=hidden;rotatable=0;points=[[0,0.5],[1,0.5]];portConstraint=eastwest;" vertex="1" parent="FkI7Pd5H__eMOUBPpmtV-3">
          <mxGeometry y="68" width="195" height="22" as="geometry" />
        </mxCell>
        <mxCell id="FkI7Pd5H__eMOUBPpmtV-7" value="Listener" style="swimlane;fontStyle=0;align=center;verticalAlign=top;childLayout=stackLayout;horizontal=1;startSize=26;horizontalStack=0;resizeParent=1;resizeLast=0;collapsible=1;marginBottom=0;rounded=0;shadow=0;strokeWidth=1;" vertex="1" parent="WIyWlLk6GJQsqaUBKTNV-1">
          <mxGeometry x="1070" y="760" width="210" height="170" as="geometry">
            <mxRectangle x="130" y="380" width="160" height="26" as="alternateBounds" />
          </mxGeometry>
        </mxCell>
        <mxCell id="FkI7Pd5H__eMOUBPpmtV-8" value="-ToDo: PerformAction[]&#xa;-hello: JPanel" style="text;align=left;verticalAlign=top;spacingLeft=4;spacingRight=4;overflow=hidden;rotatable=0;points=[[0,0.5],[1,0.5]];portConstraint=eastwest;" vertex="1" parent="FkI7Pd5H__eMOUBPpmtV-7">
          <mxGeometry y="26" width="210" height="44" as="geometry" />
        </mxCell>
        <mxCell id="FkI7Pd5H__eMOUBPpmtV-9" value="" style="line;html=1;strokeWidth=1;align=left;verticalAlign=middle;spacingTop=-1;spacingLeft=3;spacingRight=3;rotatable=0;labelPosition=right;points=[];portConstraint=eastwest;" vertex="1" parent="FkI7Pd5H__eMOUBPpmtV-7">
          <mxGeometry y="70" width="210" height="8" as="geometry" />
        </mxCell>
        <mxCell id="FkI7Pd5H__eMOUBPpmtV-10" value="+Listener(PerformAction, JPanel)&#xa;+Listener(Performaction[], JPanel)" style="text;align=left;verticalAlign=top;spacingLeft=4;spacingRight=4;overflow=hidden;rotatable=0;points=[[0,0.5],[1,0.5]];portConstraint=eastwest;" vertex="1" parent="FkI7Pd5H__eMOUBPpmtV-7">
          <mxGeometry y="78" width="210" height="42" as="geometry" />
        </mxCell>
        <mxCell id="FkI7Pd5H__eMOUBPpmtV-11" value="" style="line;html=1;strokeWidth=1;align=left;verticalAlign=middle;spacingTop=-1;spacingLeft=3;spacingRight=3;rotatable=0;labelPosition=right;points=[];portConstraint=eastwest;" vertex="1" parent="FkI7Pd5H__eMOUBPpmtV-7">
          <mxGeometry y="120" width="210" height="8" as="geometry" />
        </mxCell>
        <mxCell id="FkI7Pd5H__eMOUBPpmtV-12" value="+ actionPerformed(ActionEvent): void&#xa;" style="text;align=left;verticalAlign=top;spacingLeft=4;spacingRight=4;overflow=hidden;rotatable=0;points=[[0,0.5],[1,0.5]];portConstraint=eastwest;" vertex="1" parent="FkI7Pd5H__eMOUBPpmtV-7">
          <mxGeometry y="128" width="210" height="32" as="geometry" />
        </mxCell>
        <mxCell id="FkI7Pd5H__eMOUBPpmtV-17" value="makeChangesWindow" style="swimlane;fontStyle=0;align=center;verticalAlign=top;childLayout=stackLayout;horizontal=1;startSize=26;horizontalStack=0;resizeParent=1;resizeLast=0;collapsible=1;marginBottom=0;rounded=0;shadow=0;strokeWidth=1;" vertex="1" parent="WIyWlLk6GJQsqaUBKTNV-1">
          <mxGeometry x="900" y="990" width="200" height="60" as="geometry">
            <mxRectangle x="130" y="380" width="160" height="26" as="alternateBounds" />
          </mxGeometry>
        </mxCell>
        <mxCell id="FkI7Pd5H__eMOUBPpmtV-18" value="+perform(JPanel): void" style="text;align=left;verticalAlign=top;spacingLeft=4;spacingRight=4;overflow=hidden;rotatable=0;points=[[0,0.5],[1,0.5]];portConstraint=eastwest;" vertex="1" parent="FkI7Pd5H__eMOUBPpmtV-17">
          <mxGeometry y="26" width="200" height="22" as="geometry" />
        </mxCell>
        <mxCell id="FkI7Pd5H__eMOUBPpmtV-19" value="cleanWindow" style="swimlane;fontStyle=0;align=center;verticalAlign=top;childLayout=stackLayout;horizontal=1;startSize=26;horizontalStack=0;resizeParent=1;resizeLast=0;collapsible=1;marginBottom=0;rounded=0;shadow=0;strokeWidth=1;" vertex="1" parent="WIyWlLk6GJQsqaUBKTNV-1">
          <mxGeometry x="632" y="990" width="200" height="60" as="geometry">
            <mxRectangle x="130" y="380" width="160" height="26" as="alternateBounds" />
          </mxGeometry>
        </mxCell>
        <mxCell id="FkI7Pd5H__eMOUBPpmtV-20" value="+perform(JPanel): void" style="text;align=left;verticalAlign=top;spacingLeft=4;spacingRight=4;overflow=hidden;rotatable=0;points=[[0,0.5],[1,0.5]];portConstraint=eastwest;" vertex="1" parent="FkI7Pd5H__eMOUBPpmtV-19">
          <mxGeometry y="26" width="200" height="22" as="geometry" />
        </mxCell>
        <mxCell id="FkI7Pd5H__eMOUBPpmtV-24" value="&lt;p style=&quot;margin: 0px ; margin-top: 4px ; text-align: center&quot;&gt;&lt;i&gt;&amp;lt;&amp;lt;Interface&amp;gt;&amp;gt;&lt;/i&gt;&lt;br&gt;&lt;b&gt;Observer&lt;/b&gt;&lt;/p&gt;&lt;hr size=&quot;1&quot;&gt;&lt;p style=&quot;margin: 0px ; margin-left: 4px&quot;&gt;&lt;/p&gt;&lt;p style=&quot;margin: 0px ; margin-left: 4px&quot;&gt;+ update(): void&lt;/p&gt;" style="verticalAlign=top;align=left;overflow=fill;fontSize=12;fontFamily=Helvetica;html=1;" vertex="1" parent="WIyWlLk6GJQsqaUBKTNV-1">
          <mxGeometry x="-60" y="500" width="110" height="70" as="geometry" />
        </mxCell>
        <mxCell id="FkI7Pd5H__eMOUBPpmtV-25" value="EmployeeController" style="swimlane;fontStyle=0;align=center;verticalAlign=top;childLayout=stackLayout;horizontal=1;startSize=26;horizontalStack=0;resizeParent=1;resizeLast=0;collapsible=1;marginBottom=0;rounded=0;shadow=0;strokeWidth=1;" vertex="1" parent="WIyWlLk6GJQsqaUBKTNV-1">
          <mxGeometry x="-270" y="1660" width="330" height="190" as="geometry">
            <mxRectangle x="130" y="380" width="160" height="26" as="alternateBounds" />
          </mxGeometry>
        </mxCell>
        <mxCell id="FkI7Pd5H__eMOUBPpmtV-26" value="-theModel: EmployeeModel&#xa;-theView: EmployeeViewer&#xa;-Return: JButton&#xa;-next: JButton&#xa;#State: int&#xa;#window: JFrame" style="text;align=left;verticalAlign=top;spacingLeft=4;spacingRight=4;overflow=hidden;rotatable=0;points=[[0,0.5],[1,0.5]];portConstraint=eastwest;" vertex="1" parent="FkI7Pd5H__eMOUBPpmtV-25">
          <mxGeometry y="26" width="330" height="94" as="geometry" />
        </mxCell>
        <mxCell id="FkI7Pd5H__eMOUBPpmtV-27" value="" style="line;html=1;strokeWidth=1;align=left;verticalAlign=middle;spacingTop=-1;spacingLeft=3;spacingRight=3;rotatable=0;labelPosition=right;points=[];portConstraint=eastwest;" vertex="1" parent="FkI7Pd5H__eMOUBPpmtV-25">
          <mxGeometry y="120" width="330" height="8" as="geometry" />
        </mxCell>
        <mxCell id="FkI7Pd5H__eMOUBPpmtV-28" value="+EmployeeController(EmployeeViewer, EmployeeModel)" style="text;align=left;verticalAlign=top;spacingLeft=4;spacingRight=4;overflow=hidden;rotatable=0;points=[[0,0.5],[1,0.5]];portConstraint=eastwest;" vertex="1" parent="FkI7Pd5H__eMOUBPpmtV-25">
          <mxGeometry y="128" width="330" height="22" as="geometry" />
        </mxCell>
        <mxCell id="FkI7Pd5H__eMOUBPpmtV-29" value="" style="line;html=1;strokeWidth=1;align=left;verticalAlign=middle;spacingTop=-1;spacingLeft=3;spacingRight=3;rotatable=0;labelPosition=right;points=[];portConstraint=eastwest;" vertex="1" parent="FkI7Pd5H__eMOUBPpmtV-25">
          <mxGeometry y="150" width="330" height="8" as="geometry" />
        </mxCell>
        <mxCell id="FkI7Pd5H__eMOUBPpmtV-30" value="+ welcomeWindow(): void" style="text;align=left;verticalAlign=top;spacingLeft=4;spacingRight=4;overflow=hidden;rotatable=0;points=[[0,0.5],[1,0.5]];portConstraint=eastwest;" vertex="1" parent="FkI7Pd5H__eMOUBPpmtV-25">
          <mxGeometry y="158" width="330" height="22" as="geometry" />
        </mxCell>
        <mxCell id="FkI7Pd5H__eMOUBPpmtV-31" value="EmployeeModel" style="swimlane;fontStyle=0;align=center;verticalAlign=top;childLayout=stackLayout;horizontal=1;startSize=26;horizontalStack=0;resizeParent=1;resizeLast=0;collapsible=1;marginBottom=0;rounded=0;shadow=0;strokeWidth=1;" vertex="1" parent="WIyWlLk6GJQsqaUBKTNV-1">
          <mxGeometry x="-225" y="760" width="260" height="320" as="geometry">
            <mxRectangle x="130" y="380" width="160" height="26" as="alternateBounds" />
          </mxGeometry>
        </mxCell>
        <mxCell id="FkI7Pd5H__eMOUBPpmtV-32" value="-name: String&#xa;-surname: String&#xa;-address: String&#xa;-phoneNumber: String&#xa;-IDNumber: String&#xa;-Letters: String&#xa;-Alphanumeric: char[]" style="text;align=left;verticalAlign=top;spacingLeft=4;spacingRight=4;overflow=hidden;rotatable=0;points=[[0,0.5],[1,0.5]];portConstraint=eastwest;" vertex="1" parent="FkI7Pd5H__eMOUBPpmtV-31">
          <mxGeometry y="26" width="260" height="114" as="geometry" />
        </mxCell>
        <mxCell id="FkI7Pd5H__eMOUBPpmtV-33" value="" style="line;html=1;strokeWidth=1;align=left;verticalAlign=middle;spacingTop=-1;spacingLeft=3;spacingRight=3;rotatable=0;labelPosition=right;points=[];portConstraint=eastwest;" vertex="1" parent="FkI7Pd5H__eMOUBPpmtV-31">
          <mxGeometry y="140" width="260" height="8" as="geometry" />
        </mxCell>
        <mxCell id="FkI7Pd5H__eMOUBPpmtV-34" value="#EmployeeModel(String, String, String, String)" style="text;align=left;verticalAlign=top;spacingLeft=4;spacingRight=4;overflow=hidden;rotatable=0;points=[[0,0.5],[1,0.5]];portConstraint=eastwest;" vertex="1" parent="FkI7Pd5H__eMOUBPpmtV-31">
          <mxGeometry y="148" width="260" height="22" as="geometry" />
        </mxCell>
        <mxCell id="FkI7Pd5H__eMOUBPpmtV-35" value="" style="line;html=1;strokeWidth=1;align=left;verticalAlign=middle;spacingTop=-1;spacingLeft=3;spacingRight=3;rotatable=0;labelPosition=right;points=[];portConstraint=eastwest;" vertex="1" parent="FkI7Pd5H__eMOUBPpmtV-31">
          <mxGeometry y="170" width="260" height="8" as="geometry" />
        </mxCell>
        <mxCell id="FkI7Pd5H__eMOUBPpmtV-36" value="+ getNewAddress(): String&#xa;+ getPhoneNumber(): String&#xa;+ addNewAddress(String): String&#xa;+ addNewNumber(String): String&#xa;+ randomAlphanumeric(int): String&#xa;+ getName(): String&#xa;+ getSurname(): String&#xa;+ getIDNumber(): String&#xa;+ update(): void" style="text;align=left;verticalAlign=top;spacingLeft=4;spacingRight=4;overflow=hidden;rotatable=0;points=[[0,0.5],[1,0.5]];portConstraint=eastwest;" vertex="1" parent="FkI7Pd5H__eMOUBPpmtV-31">
          <mxGeometry y="178" width="260" height="142" as="geometry" />
        </mxCell>
        <mxCell id="FkI7Pd5H__eMOUBPpmtV-37" value="Archive" style="swimlane;fontStyle=0;align=center;verticalAlign=top;childLayout=stackLayout;horizontal=1;startSize=26;horizontalStack=0;resizeParent=1;resizeLast=0;collapsible=1;marginBottom=0;rounded=0;shadow=0;strokeWidth=1;" vertex="1" parent="WIyWlLk6GJQsqaUBKTNV-1">
          <mxGeometry x="-225" y="1310" width="260" height="150" as="geometry">
            <mxRectangle x="130" y="380" width="160" height="26" as="alternateBounds" />
          </mxGeometry>
        </mxCell>
        <mxCell id="FkI7Pd5H__eMOUBPpmtV-38" value="#listEmp: ArrayList&lt;EmployeeModel&gt;&#xa;#Data: Archive" style="text;align=left;verticalAlign=top;spacingLeft=4;spacingRight=4;overflow=hidden;rotatable=0;points=[[0,0.5],[1,0.5]];portConstraint=eastwest;" vertex="1" parent="FkI7Pd5H__eMOUBPpmtV-37">
          <mxGeometry y="26" width="260" height="44" as="geometry" />
        </mxCell>
        <mxCell id="FkI7Pd5H__eMOUBPpmtV-39" value="" style="line;html=1;strokeWidth=1;align=left;verticalAlign=middle;spacingTop=-1;spacingLeft=3;spacingRight=3;rotatable=0;labelPosition=right;points=[];portConstraint=eastwest;" vertex="1" parent="FkI7Pd5H__eMOUBPpmtV-37">
          <mxGeometry y="70" width="260" height="8" as="geometry" />
        </mxCell>
        <mxCell id="FkI7Pd5H__eMOUBPpmtV-40" value="-Archive()" style="text;align=left;verticalAlign=top;spacingLeft=4;spacingRight=4;overflow=hidden;rotatable=0;points=[[0,0.5],[1,0.5]];portConstraint=eastwest;" vertex="1" parent="FkI7Pd5H__eMOUBPpmtV-37">
          <mxGeometry y="78" width="260" height="22" as="geometry" />
        </mxCell>
        <mxCell id="FkI7Pd5H__eMOUBPpmtV-41" value="" style="line;html=1;strokeWidth=1;align=left;verticalAlign=middle;spacingTop=-1;spacingLeft=3;spacingRight=3;rotatable=0;labelPosition=right;points=[];portConstraint=eastwest;" vertex="1" parent="FkI7Pd5H__eMOUBPpmtV-37">
          <mxGeometry y="100" width="260" height="8" as="geometry" />
        </mxCell>
        <mxCell id="FkI7Pd5H__eMOUBPpmtV-42" value="+ getInstance(): Archive" style="text;align=left;verticalAlign=top;spacingLeft=4;spacingRight=4;overflow=hidden;rotatable=0;points=[[0,0.5],[1,0.5]];portConstraint=eastwest;" vertex="1" parent="FkI7Pd5H__eMOUBPpmtV-37">
          <mxGeometry y="108" width="260" height="32" as="geometry" />
        </mxCell>
        <mxCell id="FkI7Pd5H__eMOUBPpmtV-43" value="AddressListener" style="swimlane;fontStyle=0;align=center;verticalAlign=top;childLayout=stackLayout;horizontal=1;startSize=26;horizontalStack=0;resizeParent=1;resizeLast=0;collapsible=1;marginBottom=0;rounded=0;shadow=0;strokeWidth=1;" vertex="1" parent="WIyWlLk6GJQsqaUBKTNV-1">
          <mxGeometry x="-470" y="1900" width="210" height="60" as="geometry">
            <mxRectangle x="130" y="380" width="160" height="26" as="alternateBounds" />
          </mxGeometry>
        </mxCell>
        <mxCell id="FkI7Pd5H__eMOUBPpmtV-44" value="+ actionPerformed(ActionEvent): void" style="text;align=left;verticalAlign=top;spacingLeft=4;spacingRight=4;overflow=hidden;rotatable=0;points=[[0,0.5],[1,0.5]];portConstraint=eastwest;" vertex="1" parent="FkI7Pd5H__eMOUBPpmtV-43">
          <mxGeometry y="26" width="210" height="22" as="geometry" />
        </mxCell>
        <mxCell id="FkI7Pd5H__eMOUBPpmtV-45" value="MVCPatternDemo" style="swimlane;fontStyle=0;align=center;verticalAlign=top;childLayout=stackLayout;horizontal=1;startSize=26;horizontalStack=0;resizeParent=1;resizeLast=0;collapsible=1;marginBottom=0;rounded=0;shadow=0;strokeWidth=1;" vertex="1" parent="WIyWlLk6GJQsqaUBKTNV-1">
          <mxGeometry x="150" y="1900" width="210" height="60" as="geometry">
            <mxRectangle x="130" y="380" width="160" height="26" as="alternateBounds" />
          </mxGeometry>
        </mxCell>
        <mxCell id="FkI7Pd5H__eMOUBPpmtV-46" value="+main(String[]): void" style="text;align=left;verticalAlign=top;spacingLeft=4;spacingRight=4;overflow=hidden;rotatable=0;points=[[0,0.5],[1,0.5]];portConstraint=eastwest;" vertex="1" parent="FkI7Pd5H__eMOUBPpmtV-45">
          <mxGeometry y="26" width="210" height="22" as="geometry" />
        </mxCell>
        <mxCell id="FkI7Pd5H__eMOUBPpmtV-47" value="" style="endArrow=block;dashed=1;endFill=0;endSize=12;html=1;entryX=0.25;entryY=1;entryDx=0;entryDy=0;exitX=0.5;exitY=0;exitDx=0;exitDy=0;" edge="1" parent="WIyWlLk6GJQsqaUBKTNV-1" source="FkI7Pd5H__eMOUBPpmtV-31" target="FkI7Pd5H__eMOUBPpmtV-24">
          <mxGeometry width="160" relative="1" as="geometry">
            <mxPoint x="-40" y="990" as="sourcePoint" />
            <mxPoint x="120" y="990" as="targetPoint" />
          </mxGeometry>
        </mxCell>
        <mxCell id="FkI7Pd5H__eMOUBPpmtV-48" value="" style="endArrow=block;dashed=1;endFill=0;endSize=12;html=1;entryX=0.5;entryY=1;entryDx=0;entryDy=0;exitX=0.5;exitY=0;exitDx=0;exitDy=0;" edge="1" parent="WIyWlLk6GJQsqaUBKTNV-1" source="yJvv-XalZOZq7SXCXMbF-25" target="FkI7Pd5H__eMOUBPpmtV-24">
          <mxGeometry width="160" relative="1" as="geometry">
            <mxPoint x="-85" y="770" as="sourcePoint" />
            <mxPoint x="-22.5" y="580" as="targetPoint" />
            <Array as="points">
              <mxPoint x="250" y="640" />
              <mxPoint y="640" />
            </Array>
          </mxGeometry>
        </mxCell>
        <mxCell id="FkI7Pd5H__eMOUBPpmtV-49" value="&lt;p style=&quot;margin: 0px ; margin-top: 4px ; text-align: center&quot;&gt;&lt;i&gt;&amp;lt;&amp;lt;Interface&amp;gt;&amp;gt;&lt;/i&gt;&lt;br&gt;&lt;b&gt;PerformAction&lt;/b&gt;&lt;/p&gt;&lt;hr size=&quot;1&quot;&gt;&lt;p style=&quot;margin: 0px ; margin-left: 4px&quot;&gt;&lt;/p&gt;&lt;p style=&quot;margin: 0px ; margin-left: 4px&quot;&gt;+ perform(JPanel): void&lt;/p&gt;" style="verticalAlign=top;align=left;overflow=fill;fontSize=12;fontFamily=Helvetica;html=1;" vertex="1" parent="WIyWlLk6GJQsqaUBKTNV-1">
          <mxGeometry x="930" y="500" width="140" height="70" as="geometry" />
        </mxCell>
        <mxCell id="FkI7Pd5H__eMOUBPpmtV-50" value="" style="endArrow=block;dashed=1;endFill=0;endSize=12;html=1;entryX=0.5;entryY=1;entryDx=0;entryDy=0;exitX=0.5;exitY=0;exitDx=0;exitDy=0;" edge="1" parent="WIyWlLk6GJQsqaUBKTNV-1" source="FkI7Pd5H__eMOUBPpmtV-3" target="FkI7Pd5H__eMOUBPpmtV-49">
          <mxGeometry width="160" relative="1" as="geometry">
            <mxPoint x="265" y="1179" as="sourcePoint" />
            <mxPoint x="5" y="580" as="targetPoint" />
            <Array as="points">
              <mxPoint x="730" y="640" />
              <mxPoint x="1000" y="640" />
            </Array>
          </mxGeometry>
        </mxCell>
        <mxCell id="FkI7Pd5H__eMOUBPpmtV-51" value="Extends" style="endArrow=block;endSize=16;endFill=0;html=1;entryX=0.25;entryY=1;entryDx=0;entryDy=0;exitX=0.5;exitY=0;exitDx=0;exitDy=0;" edge="1" parent="WIyWlLk6GJQsqaUBKTNV-1" source="k2MHYXyFLo4ic7kFRecb-33" target="FkI7Pd5H__eMOUBPpmtV-3">
          <mxGeometry width="160" relative="1" as="geometry">
            <mxPoint x="440" y="940" as="sourcePoint" />
            <mxPoint x="600" y="940" as="targetPoint" />
          </mxGeometry>
        </mxCell>
        <mxCell id="FkI7Pd5H__eMOUBPpmtV-52" value="Extends" style="endArrow=block;endSize=16;endFill=0;html=1;entryX=0.5;entryY=1;entryDx=0;entryDy=0;exitX=0.5;exitY=0;exitDx=0;exitDy=0;" edge="1" parent="WIyWlLk6GJQsqaUBKTNV-1" source="FkI7Pd5H__eMOUBPpmtV-19" target="FkI7Pd5H__eMOUBPpmtV-3">
          <mxGeometry width="160" relative="1" as="geometry">
            <mxPoint x="540" y="1010" as="sourcePoint" />
            <mxPoint x="756.75" y="880" as="targetPoint" />
          </mxGeometry>
        </mxCell>
        <mxCell id="FkI7Pd5H__eMOUBPpmtV-53" value="Extends" style="endArrow=block;endSize=16;endFill=0;html=1;entryX=0.75;entryY=1;entryDx=0;entryDy=0;exitX=0.5;exitY=0;exitDx=0;exitDy=0;" edge="1" parent="WIyWlLk6GJQsqaUBKTNV-1" source="FkI7Pd5H__eMOUBPpmtV-17" target="FkI7Pd5H__eMOUBPpmtV-3">
          <mxGeometry width="160" relative="1" as="geometry">
            <mxPoint x="742" y="1000" as="sourcePoint" />
            <mxPoint x="739.5" y="870" as="targetPoint" />
          </mxGeometry>
        </mxCell>
        <mxCell id="FkI7Pd5H__eMOUBPpmtV-54" value="" style="endArrow=open;startArrow=circlePlus;endFill=0;startFill=0;endSize=8;html=1;exitX=0.25;exitY=1;exitDx=0;exitDy=0;entryX=0.25;entryY=0;entryDx=0;entryDy=0;" edge="1" parent="WIyWlLk6GJQsqaUBKTNV-1" source="FkI7Pd5H__eMOUBPpmtV-49" target="k2MHYXyFLo4ic7kFRecb-33">
          <mxGeometry width="160" relative="1" as="geometry">
            <mxPoint x="500" y="990" as="sourcePoint" />
            <mxPoint x="660" y="990" as="targetPoint" />
            <Array as="points">
              <mxPoint x="965" y="650" />
              <mxPoint x="414" y="650" />
            </Array>
          </mxGeometry>
        </mxCell>
        <mxCell id="FkI7Pd5H__eMOUBPpmtV-55" value="" style="endArrow=open;startArrow=circlePlus;endFill=0;startFill=0;endSize=8;html=1;exitX=0.25;exitY=1;exitDx=0;exitDy=0;entryX=0.25;entryY=0;entryDx=0;entryDy=0;" edge="1" parent="WIyWlLk6GJQsqaUBKTNV-1" source="FkI7Pd5H__eMOUBPpmtV-49" target="FkI7Pd5H__eMOUBPpmtV-3">
          <mxGeometry width="160" relative="1" as="geometry">
            <mxPoint x="975" y="580" as="sourcePoint" />
            <mxPoint x="424" y="1000" as="targetPoint" />
            <Array as="points">
              <mxPoint x="965" y="680" />
              <mxPoint x="681" y="680" />
            </Array>
          </mxGeometry>
        </mxCell>
        <mxCell id="FkI7Pd5H__eMOUBPpmtV-56" value="" style="endArrow=open;startArrow=circlePlus;endFill=0;startFill=0;endSize=8;html=1;exitX=0.25;exitY=1;exitDx=0;exitDy=0;entryX=0.75;entryY=0;entryDx=0;entryDy=0;" edge="1" parent="WIyWlLk6GJQsqaUBKTNV-1" source="FkI7Pd5H__eMOUBPpmtV-49" target="FkI7Pd5H__eMOUBPpmtV-19">
          <mxGeometry width="160" relative="1" as="geometry">
            <mxPoint x="1431" y="610" as="sourcePoint" />
            <mxPoint x="880" y="1030" as="targetPoint" />
            <Array as="points">
              <mxPoint x="965" y="880" />
              <mxPoint x="782" y="880" />
            </Array>
          </mxGeometry>
        </mxCell>
        <mxCell id="FkI7Pd5H__eMOUBPpmtV-57" value="" style="endArrow=open;startArrow=circlePlus;endFill=0;startFill=0;endSize=8;html=1;exitX=0.25;exitY=1;exitDx=0;exitDy=0;entryX=0.75;entryY=0;entryDx=0;entryDy=0;" edge="1" parent="WIyWlLk6GJQsqaUBKTNV-1" source="FkI7Pd5H__eMOUBPpmtV-49" target="FkI7Pd5H__eMOUBPpmtV-17">
          <mxGeometry width="160" relative="1" as="geometry">
            <mxPoint x="975" y="580" as="sourcePoint" />
            <mxPoint x="792" y="1000" as="targetPoint" />
            <Array as="points">
              <mxPoint x="965" y="890" />
              <mxPoint x="1050" y="890" />
            </Array>
          </mxGeometry>
        </mxCell>
        <mxCell id="FkI7Pd5H__eMOUBPpmtV-59" value="" style="endArrow=block;dashed=1;endFill=0;endSize=12;html=1;exitX=0.75;exitY=0;exitDx=0;exitDy=0;entryX=0.5;entryY=1;entryDx=0;entryDy=0;" edge="1" parent="WIyWlLk6GJQsqaUBKTNV-1" source="yJvv-XalZOZq7SXCXMbF-25" target="FkI7Pd5H__eMOUBPpmtV-19">
          <mxGeometry width="160" relative="1" as="geometry">
            <mxPoint x="480" y="1245" as="sourcePoint" />
            <mxPoint x="640" y="1245" as="targetPoint" />
          </mxGeometry>
        </mxCell>
        <mxCell id="FkI7Pd5H__eMOUBPpmtV-61" value="&quot;create&quot;" style="edgeLabel;html=1;align=center;verticalAlign=middle;resizable=0;points=[];" vertex="1" connectable="0" parent="FkI7Pd5H__eMOUBPpmtV-59">
          <mxGeometry x="0.3109" y="3" relative="1" as="geometry">
            <mxPoint x="1" as="offset" />
          </mxGeometry>
        </mxCell>
        <mxCell id="FkI7Pd5H__eMOUBPpmtV-62" value="" style="endArrow=block;dashed=1;endFill=0;endSize=12;html=1;entryX=0.75;entryY=1;entryDx=0;entryDy=0;exitX=1;exitY=0;exitDx=0;exitDy=0;" edge="1" parent="WIyWlLk6GJQsqaUBKTNV-1" source="yJvv-XalZOZq7SXCXMbF-25" target="FkI7Pd5H__eMOUBPpmtV-7">
          <mxGeometry width="160" relative="1" as="geometry">
            <mxPoint x="520" y="1190" as="sourcePoint" />
            <mxPoint x="814.5" y="1160" as="targetPoint" />
            <Array as="points">
              <mxPoint x="1228" y="1130" />
            </Array>
          </mxGeometry>
        </mxCell>
        <mxCell id="FkI7Pd5H__eMOUBPpmtV-63" value="&quot;create&quot;" style="edgeLabel;html=1;align=center;verticalAlign=middle;resizable=0;points=[];" vertex="1" connectable="0" parent="FkI7Pd5H__eMOUBPpmtV-62">
          <mxGeometry x="0.3109" y="3" relative="1" as="geometry">
            <mxPoint x="1" as="offset" />
          </mxGeometry>
        </mxCell>
        <mxCell id="FkI7Pd5H__eMOUBPpmtV-65" value="&lt;p style=&quot;margin: 0px ; margin-top: 4px ; text-align: center&quot;&gt;&lt;i&gt;&amp;lt;&amp;lt;Interface&amp;gt;&amp;gt;&lt;/i&gt;&lt;br&gt;&lt;b&gt;MyObservable&lt;/b&gt;&lt;/p&gt;&lt;hr size=&quot;1&quot;&gt;&lt;p style=&quot;margin: 0px ; margin-left: 4px&quot;&gt;&lt;/p&gt;&lt;p style=&quot;margin: 0px ; margin-left: 4px&quot;&gt;+ Notify: void&lt;/p&gt;" style="verticalAlign=top;align=left;overflow=fill;fontSize=12;fontFamily=Helvetica;html=1;" vertex="1" parent="WIyWlLk6GJQsqaUBKTNV-1">
          <mxGeometry x="1360" y="500" width="140" height="70" as="geometry" />
        </mxCell>
        <mxCell id="FkI7Pd5H__eMOUBPpmtV-66" value="" style="endArrow=block;dashed=1;endFill=0;endSize=12;html=1;exitX=0.5;exitY=0;exitDx=0;exitDy=0;entryX=1;entryY=1;entryDx=0;entryDy=0;" edge="1" parent="WIyWlLk6GJQsqaUBKTNV-1" source="FkI7Pd5H__eMOUBPpmtV-7" target="FkI7Pd5H__eMOUBPpmtV-49">
          <mxGeometry width="160" relative="1" as="geometry">
            <mxPoint x="865.5" y="749" as="sourcePoint" />
            <mxPoint x="1280" y="630" as="targetPoint" />
          </mxGeometry>
        </mxCell>
        <mxCell id="FkI7Pd5H__eMOUBPpmtV-67" value="&quot;create&quot;" style="edgeLabel;html=1;align=center;verticalAlign=middle;resizable=0;points=[];" vertex="1" connectable="0" parent="FkI7Pd5H__eMOUBPpmtV-66">
          <mxGeometry x="0.3109" y="3" relative="1" as="geometry">
            <mxPoint x="1" as="offset" />
          </mxGeometry>
        </mxCell>
        <mxCell id="FkI7Pd5H__eMOUBPpmtV-68" value="" style="endArrow=block;dashed=1;endFill=0;endSize=12;html=1;exitX=0.25;exitY=0;exitDx=0;exitDy=0;entryX=0.75;entryY=1;entryDx=0;entryDy=0;" edge="1" parent="WIyWlLk6GJQsqaUBKTNV-1" source="FkI7Pd5H__eMOUBPpmtV-7" target="FkI7Pd5H__eMOUBPpmtV-49">
          <mxGeometry width="160" relative="1" as="geometry">
            <mxPoint x="1185" y="770" as="sourcePoint" />
            <mxPoint x="1045" y="580" as="targetPoint" />
          </mxGeometry>
        </mxCell>
        <mxCell id="FkI7Pd5H__eMOUBPpmtV-70" value="Relation" style="endArrow=open;html=1;endSize=12;startArrow=diamondThin;startSize=14;startFill=0;edgeStyle=orthogonalEdgeStyle;exitX=0.75;exitY=0;exitDx=0;exitDy=0;entryX=1;entryY=0.25;entryDx=0;entryDy=0;" edge="1" parent="WIyWlLk6GJQsqaUBKTNV-1" source="FkI7Pd5H__eMOUBPpmtV-7" target="FkI7Pd5H__eMOUBPpmtV-49">
          <mxGeometry x="0.1762" y="-504" relative="1" as="geometry">
            <mxPoint x="1190" y="700" as="sourcePoint" />
            <mxPoint x="1150" y="490" as="targetPoint" />
            <mxPoint x="423" y="229" as="offset" />
          </mxGeometry>
        </mxCell>
        <mxCell id="FkI7Pd5H__eMOUBPpmtV-71" value="0..n" style="edgeLabel;resizable=0;html=1;align=left;verticalAlign=top;" connectable="0" vertex="1" parent="FkI7Pd5H__eMOUBPpmtV-70">
          <mxGeometry x="-1" relative="1" as="geometry" />
        </mxCell>
        <mxCell id="FkI7Pd5H__eMOUBPpmtV-72" value="1" style="edgeLabel;resizable=0;html=1;align=right;verticalAlign=top;" connectable="0" vertex="1" parent="FkI7Pd5H__eMOUBPpmtV-70">
          <mxGeometry x="1" relative="1" as="geometry" />
        </mxCell>
        <mxCell id="FkI7Pd5H__eMOUBPpmtV-73" value="1" style="edgeLabel;html=1;align=center;verticalAlign=middle;resizable=0;points=[];" vertex="1" connectable="0" parent="FkI7Pd5H__eMOUBPpmtV-70">
          <mxGeometry x="-0.885" y="-5" relative="1" as="geometry">
            <mxPoint as="offset" />
          </mxGeometry>
        </mxCell>
        <mxCell id="FkI7Pd5H__eMOUBPpmtV-76" value="*" style="edgeLabel;html=1;align=center;verticalAlign=middle;resizable=0;points=[];" vertex="1" connectable="0" parent="FkI7Pd5H__eMOUBPpmtV-70">
          <mxGeometry x="0.8581" y="-4" relative="1" as="geometry">
            <mxPoint y="-1" as="offset" />
          </mxGeometry>
        </mxCell>
        <mxCell id="FkI7Pd5H__eMOUBPpmtV-78" value="" style="endArrow=block;dashed=1;endFill=0;endSize=12;html=1;exitX=0.25;exitY=0;exitDx=0;exitDy=0;entryX=0.89;entryY=1;entryDx=0;entryDy=0;entryPerimeter=0;" edge="1" parent="WIyWlLk6GJQsqaUBKTNV-1" source="FkI7Pd5H__eMOUBPpmtV-45" target="FkI7Pd5H__eMOUBPpmtV-36">
          <mxGeometry width="160" relative="1" as="geometry">
            <mxPoint x="320" y="1670" as="sourcePoint" />
            <mxPoint x="480" y="1670" as="targetPoint" />
          </mxGeometry>
        </mxCell>
        <mxCell id="FkI7Pd5H__eMOUBPpmtV-79" value="&quot;create&quot;" style="edgeLabel;html=1;align=center;verticalAlign=middle;resizable=0;points=[];" vertex="1" connectable="0" parent="FkI7Pd5H__eMOUBPpmtV-78">
          <mxGeometry x="0.3235" y="-3" relative="1" as="geometry">
            <mxPoint as="offset" />
          </mxGeometry>
        </mxCell>
        <mxCell id="FkI7Pd5H__eMOUBPpmtV-87" value="Relation" style="endArrow=open;html=1;endSize=12;startArrow=diamondThin;startSize=14;startFill=0;edgeStyle=orthogonalEdgeStyle;exitX=0.75;exitY=0;exitDx=0;exitDy=0;entryX=0.193;entryY=0.998;entryDx=0;entryDy=0;entryPerimeter=0;" edge="1" parent="WIyWlLk6GJQsqaUBKTNV-1" source="FkI7Pd5H__eMOUBPpmtV-25" target="yJvv-XalZOZq7SXCXMbF-30">
          <mxGeometry x="0.1762" y="-504" relative="1" as="geometry">
            <mxPoint x="787.5" y="1552.5" as="sourcePoint" />
            <mxPoint x="630" y="1310" as="targetPoint" />
            <mxPoint x="423" y="229" as="offset" />
            <Array as="points">
              <mxPoint x="-22" y="1620" />
              <mxPoint x="178" y="1620" />
            </Array>
          </mxGeometry>
        </mxCell>
        <mxCell id="FkI7Pd5H__eMOUBPpmtV-88" value="0..n" style="edgeLabel;resizable=0;html=1;align=left;verticalAlign=top;" connectable="0" vertex="1" parent="FkI7Pd5H__eMOUBPpmtV-87">
          <mxGeometry x="-1" relative="1" as="geometry" />
        </mxCell>
        <mxCell id="FkI7Pd5H__eMOUBPpmtV-89" value="1" style="edgeLabel;resizable=0;html=1;align=right;verticalAlign=top;" connectable="0" vertex="1" parent="FkI7Pd5H__eMOUBPpmtV-87">
          <mxGeometry x="1" relative="1" as="geometry" />
        </mxCell>
        <mxCell id="FkI7Pd5H__eMOUBPpmtV-90" value="1" style="edgeLabel;html=1;align=center;verticalAlign=middle;resizable=0;points=[];" vertex="1" connectable="0" parent="FkI7Pd5H__eMOUBPpmtV-87">
          <mxGeometry x="-0.885" y="-5" relative="1" as="geometry">
            <mxPoint as="offset" />
          </mxGeometry>
        </mxCell>
        <mxCell id="FkI7Pd5H__eMOUBPpmtV-91" value="*" style="edgeLabel;html=1;align=center;verticalAlign=middle;resizable=0;points=[];" vertex="1" connectable="0" parent="FkI7Pd5H__eMOUBPpmtV-87">
          <mxGeometry x="0.8581" y="-4" relative="1" as="geometry">
            <mxPoint y="-1" as="offset" />
          </mxGeometry>
        </mxCell>
        <mxCell id="FkI7Pd5H__eMOUBPpmtV-92" value="Use" style="endArrow=open;endSize=12;dashed=1;html=1;entryX=0;entryY=0.5;entryDx=0;entryDy=0;exitX=0.5;exitY=0;exitDx=0;exitDy=0;" edge="1" parent="WIyWlLk6GJQsqaUBKTNV-1" source="FkI7Pd5H__eMOUBPpmtV-25" target="yJvv-XalZOZq7SXCXMbF-30">
          <mxGeometry width="160" relative="1" as="geometry">
            <mxPoint x="-225" y="1610" as="sourcePoint" />
            <mxPoint x="-65" y="1610" as="targetPoint" />
          </mxGeometry>
        </mxCell>
        <mxCell id="FkI7Pd5H__eMOUBPpmtV-93" value="Use" style="endArrow=open;endSize=12;dashed=1;html=1;entryX=0;entryY=0.5;entryDx=0;entryDy=0;exitX=0;exitY=0;exitDx=0;exitDy=0;" edge="1" parent="WIyWlLk6GJQsqaUBKTNV-1" source="FkI7Pd5H__eMOUBPpmtV-25" target="FkI7Pd5H__eMOUBPpmtV-36">
          <mxGeometry width="160" relative="1" as="geometry">
            <mxPoint x="-95" y="1670" as="sourcePoint" />
            <mxPoint x="140" y="1478" as="targetPoint" />
          </mxGeometry>
        </mxCell>
        <mxCell id="FkI7Pd5H__eMOUBPpmtV-94" value="Use" style="endArrow=open;endSize=12;dashed=1;html=1;entryX=0;entryY=0.5;entryDx=0;entryDy=0;exitX=0.5;exitY=0;exitDx=0;exitDy=0;" edge="1" parent="WIyWlLk6GJQsqaUBKTNV-1" source="FkI7Pd5H__eMOUBPpmtV-43" target="FkI7Pd5H__eMOUBPpmtV-30">
          <mxGeometry width="160" relative="1" as="geometry">
            <mxPoint x="-260" y="1670" as="sourcePoint" />
            <mxPoint x="-215" y="1019" as="targetPoint" />
          </mxGeometry>
        </mxCell>
        <mxCell id="FkI7Pd5H__eMOUBPpmtV-95" value="" style="endArrow=open;startArrow=circlePlus;endFill=0;startFill=0;endSize=8;html=1;exitX=0.25;exitY=1;exitDx=0;exitDy=0;entryX=0.75;entryY=0;entryDx=0;entryDy=0;" edge="1" parent="WIyWlLk6GJQsqaUBKTNV-1" source="FkI7Pd5H__eMOUBPpmtV-25" target="FkI7Pd5H__eMOUBPpmtV-43">
          <mxGeometry width="160" relative="1" as="geometry">
            <mxPoint x="-85.75" y="1810" as="sourcePoint" />
            <mxPoint x="-370" y="2000" as="targetPoint" />
            <Array as="points">
              <mxPoint x="-187" y="1880" />
              <mxPoint x="-320" y="1880" />
            </Array>
          </mxGeometry>
        </mxCell>
        <mxCell id="FkI7Pd5H__eMOUBPpmtV-97" value="" style="endArrow=block;dashed=1;endFill=0;endSize=12;html=1;exitX=0.5;exitY=0;exitDx=0;exitDy=0;entryX=1;entryY=0.5;entryDx=0;entryDy=0;" edge="1" parent="WIyWlLk6GJQsqaUBKTNV-1" source="FkI7Pd5H__eMOUBPpmtV-45" target="FkI7Pd5H__eMOUBPpmtV-30">
          <mxGeometry width="160" relative="1" as="geometry">
            <mxPoint x="212.5" y="1910" as="sourcePoint" />
            <mxPoint x="16.40000000000009" y="1090" as="targetPoint" />
          </mxGeometry>
        </mxCell>
        <mxCell id="FkI7Pd5H__eMOUBPpmtV-98" value="&quot;create&quot;" style="edgeLabel;html=1;align=center;verticalAlign=middle;resizable=0;points=[];" vertex="1" connectable="0" parent="FkI7Pd5H__eMOUBPpmtV-97">
          <mxGeometry x="0.3235" y="-3" relative="1" as="geometry">
            <mxPoint as="offset" />
          </mxGeometry>
        </mxCell>
        <mxCell id="FkI7Pd5H__eMOUBPpmtV-99" value="Use" style="endArrow=open;endSize=12;dashed=1;html=1;entryX=1;entryY=0.5;entryDx=0;entryDy=0;exitX=0.75;exitY=0;exitDx=0;exitDy=0;" edge="1" parent="WIyWlLk6GJQsqaUBKTNV-1" source="FkI7Pd5H__eMOUBPpmtV-45" target="FkI7Pd5H__eMOUBPpmtV-25">
          <mxGeometry width="160" relative="1" as="geometry">
            <mxPoint x="-95" y="1670" as="sourcePoint" />
            <mxPoint x="140" y="1478" as="targetPoint" />
          </mxGeometry>
        </mxCell>
        <mxCell id="FkI7Pd5H__eMOUBPpmtV-100" value="" style="endArrow=block;dashed=1;endFill=0;endSize=12;html=1;exitX=1;exitY=0;exitDx=0;exitDy=0;entryX=0.663;entryY=1.007;entryDx=0;entryDy=0;entryPerimeter=0;" edge="1" parent="WIyWlLk6GJQsqaUBKTNV-1" source="FkI7Pd5H__eMOUBPpmtV-45" target="yJvv-XalZOZq7SXCXMbF-30">
          <mxGeometry width="160" relative="1" as="geometry">
            <mxPoint x="265" y="1910" as="sourcePoint" />
            <mxPoint x="70" y="1839" as="targetPoint" />
          </mxGeometry>
        </mxCell>
        <mxCell id="FkI7Pd5H__eMOUBPpmtV-101" value="&quot;create&quot;" style="edgeLabel;html=1;align=center;verticalAlign=middle;resizable=0;points=[];" vertex="1" connectable="0" parent="FkI7Pd5H__eMOUBPpmtV-100">
          <mxGeometry x="0.3235" y="-3" relative="1" as="geometry">
            <mxPoint as="offset" />
          </mxGeometry>
        </mxCell>
      </root>
    </mxGraphModel>
  </diagram>
</mxfile>
